<svg shape-rendering="geometricPrecision" id="svgElem" xmlns="http://www.w3.org/2000/svg" width="1400" height="801"><g id="polygons"><polygon points="408,422,276,357,267,496" style="fill:#CCC;stroke-linejoin:bevel;stroke-width: 1px;stroke: #CCC;"></polygon><polygon points="408,422,267,496,336,526" style="fill:#DDD;stroke-linejoin:bevel;stroke-width: 1px;stroke: #DDD;"></polygon><polygon points="408,422,336,526,405,559" style="fill:#EEE;stroke-linejoin:bevel;stroke-width: 1px;stroke: #EEE;"></polygon><polygon points="408,422,405,559,577,456" style="fill:#CCC;stroke-linejoin:bevel;stroke-width: 1px;stroke: #CCC;"></polygon><polygon points="408,422,577,456,471,306" style="fill:#DDD;stroke-linejoin:bevel;stroke-width: 1px;stroke: #DDD;"></polygon><polygon points="408,422,471,306,276,357" style="fill:#EEE;stroke-linejoin:bevel;stroke-width: 1px;stroke: #EEE;"></polygon><polygon points="348,739,277,716,192,835" style="fill:#CCC;stroke-linejoin:bevel;stroke-width: 1px;stroke: #CCC;"></polygon><polygon points="348,739,192,835,413,890" style="fill:#DDD;stroke-linejoin:bevel;stroke-width: 1px;stroke: #DDD;"></polygon><polygon points="348,739,413,890,466,660" style="fill:#EEE;stroke-linejoin:bevel;stroke-width: 1px;stroke: #EEE;"></polygon><polygon points="348,739,466,660,288,632" style="fill:#CCC;stroke-linejoin:bevel;stroke-width: 1px;stroke: #CCC;"></polygon><polygon points="348,739,288,632,277,716" style="fill:#DDD;stroke-linejoin:bevel;stroke-width: 1px;stroke: #DDD;"></polygon><polygon points="909,860,693,854,413,890" style="fill:#EEE;stroke-linejoin:bevel;stroke-width: 1px;stroke: #EEE;"></polygon><polygon points="909,860,413,890,1473,898" style="fill:#CCC;stroke-linejoin:bevel;stroke-width: 1px;stroke: #CCC;"></polygon><polygon points="909,860,1473,898,1197,853" style="fill:#DDD;stroke-linejoin:bevel;stroke-width: 1px;stroke: #DDD;"></polygon><polygon points="909,860,1197,853,931,678" style="fill:#EEE;stroke-linejoin:bevel;stroke-width: 1px;stroke: #EEE;"></polygon><polygon points="909,860,931,678,777,840" style="fill:#CCC;stroke-linejoin:bevel;stroke-width: 1px;stroke: #CCC;"></polygon><polygon points="909,860,777,840,693,854" style="fill:#DDD;stroke-linejoin:bevel;stroke-width: 1px;stroke: #DDD;"></polygon><polygon points="1496,695,1276,663,1231,802" style="fill:#EEE;stroke-linejoin:bevel;stroke-width: 1px;stroke: #EEE;"></polygon><polygon points="1496,695,1231,802,1473,898" style="fill:#CCC;stroke-linejoin:bevel;stroke-width: 1px;stroke: #CCC;"></polygon><polygon points="1496,695,1481,-96,1398,217" style="fill:#DDD;stroke-linejoin:bevel;stroke-width: 1px;stroke: #DDD;"></polygon><polygon points="1496,695,1398,217,1391,411" style="fill:#EEE;stroke-linejoin:bevel;stroke-width: 1px;stroke: #EEE;"></polygon><polygon points="1496,695,1391,411,1360,593" style="fill:#CCC;stroke-linejoin:bevel;stroke-width: 1px;stroke: #CCC;"></polygon><polygon points="1496,695,1360,593,1276,663" style="fill:#DDD;stroke-linejoin:bevel;stroke-width: 1px;stroke: #DDD;"></polygon><polygon points="1041,444,987,388,963,528" style="fill:#EEE;stroke-linejoin:bevel;stroke-width: 1px;stroke: #EEE;"></polygon><polygon points="1041,444,963,528,1086,602" style="fill:#CCC;stroke-linejoin:bevel;stroke-width: 1px;stroke: #CCC;"></polygon><polygon points="1041,444,1086,602,1138,549" style="fill:#DDD;stroke-linejoin:bevel;stroke-width: 1px;stroke: #DDD;"></polygon><polygon points="1041,444,1138,549,1136,478" style="fill:#EEE;stroke-linejoin:bevel;stroke-width: 1px;stroke: #EEE;"></polygon><polygon points="1041,444,1136,478,1090,345" style="fill:#CCC;stroke-linejoin:bevel;stroke-width: 1px;stroke: #CCC;"></polygon><polygon points="1041,444,1090,345,987,388" style="fill:#DDD;stroke-linejoin:bevel;stroke-width: 1px;stroke: #DDD;"></polygon><polygon points="3,370,-221,300,-76,544" style="fill:#EEE;stroke-linejoin:bevel;stroke-width: 1px;stroke: #EEE;"></polygon><polygon points="3,370,-76,544,122,464" style="fill:#CCC;stroke-linejoin:bevel;stroke-width: 1px;stroke: #CCC;"></polygon><polygon points="3,370,122,464,119,401" style="fill:#DDD;stroke-linejoin:bevel;stroke-width: 1px;stroke: #DDD;"></polygon><polygon points="3,370,119,401,100,352" style="fill:#EEE;stroke-linejoin:bevel;stroke-width: 1px;stroke: #EEE;"></polygon><polygon points="3,370,100,352,-13,136" style="fill:#CCC;stroke-linejoin:bevel;stroke-width: 1px;stroke: #CCC;"></polygon><polygon points="3,370,-13,136,-221,300" style="fill:#DDD;stroke-linejoin:bevel;stroke-width: 1px;stroke: #DDD;"></polygon><polygon points="843,222,849,72,779,250" style="fill:#EEE;stroke-linejoin:bevel;stroke-width: 1px;stroke: #EEE;"></polygon><polygon points="843,222,779,250,934,296" style="fill:#CCC;stroke-linejoin:bevel;stroke-width: 1px;stroke: #CCC;"></polygon><polygon points="843,222,934,296,900,152" style="fill:#DDD;stroke-linejoin:bevel;stroke-width: 1px;stroke: #DDD;"></polygon><polygon points="843,222,900,152,849,72" style="fill:#EEE;stroke-linejoin:bevel;stroke-width: 1px;stroke: #EEE;"></polygon><polygon points="517,187,377,145,471,306" style="fill:#CCC;stroke-linejoin:bevel;stroke-width: 1px;stroke: #CCC;"></polygon><polygon points="517,187,471,306,665,300" style="fill:#DDD;stroke-linejoin:bevel;stroke-width: 1px;stroke: #DDD;"></polygon><polygon points="517,187,665,300,637,142" style="fill:#EEE;stroke-linejoin:bevel;stroke-width: 1px;stroke: #EEE;"></polygon><polygon points="517,187,637,142,582,115" style="fill:#CCC;stroke-linejoin:bevel;stroke-width: 1px;stroke: #CCC;"></polygon><polygon points="517,187,582,115,377,145" style="fill:#DDD;stroke-linejoin:bevel;stroke-width: 1px;stroke: #DDD;"></polygon><polygon points="648,538,577,456,466,660" style="fill:#EEE;stroke-linejoin:bevel;stroke-width: 1px;stroke: #EEE;"></polygon><polygon points="648,538,466,660,741,712" style="fill:#CCC;stroke-linejoin:bevel;stroke-width: 1px;stroke: #CCC;"></polygon><polygon points="648,538,741,712,825,598" style="fill:#DDD;stroke-linejoin:bevel;stroke-width: 1px;stroke: #DDD;"></polygon><polygon points="648,538,825,598,748,423" style="fill:#EEE;stroke-linejoin:bevel;stroke-width: 1px;stroke: #EEE;"></polygon><polygon points="648,538,748,423,678,408" style="fill:#CCC;stroke-linejoin:bevel;stroke-width: 1px;stroke: #CCC;"></polygon><polygon points="648,538,678,408,577,456" style="fill:#DDD;stroke-linejoin:bevel;stroke-width: 1px;stroke: #DDD;"></polygon><polygon points="175,568,122,464,99,666" style="fill:#EEE;stroke-linejoin:bevel;stroke-width: 1px;stroke: #EEE;"></polygon><polygon points="175,568,99,666,176,684" style="fill:#CCC;stroke-linejoin:bevel;stroke-width: 1px;stroke: #CCC;"></polygon><polygon points="175,568,176,684,288,632" style="fill:#DDD;stroke-linejoin:bevel;stroke-width: 1px;stroke: #DDD;"></polygon><polygon points="175,568,288,632,267,496" style="fill:#EEE;stroke-linejoin:bevel;stroke-width: 1px;stroke: #EEE;"></polygon><polygon points="175,568,267,496,122,464" style="fill:#CCC;stroke-linejoin:bevel;stroke-width: 1px;stroke: #CCC;"></polygon><polygon points="248,92,174,-10,-13,136" style="fill:#DDD;stroke-linejoin:bevel;stroke-width: 1px;stroke: #DDD;"></polygon><polygon points="248,92,-13,136,100,352" style="fill:#EEE;stroke-linejoin:bevel;stroke-width: 1px;stroke: #EEE;"></polygon><polygon points="248,92,100,352,203,362" style="fill:#CCC;stroke-linejoin:bevel;stroke-width: 1px;stroke: #CCC;"></polygon><polygon points="248,92,203,362,276,357" style="fill:#DDD;stroke-linejoin:bevel;stroke-width: 1px;stroke: #DDD;"></polygon><polygon points="248,92,276,357,377,145" style="fill:#EEE;stroke-linejoin:bevel;stroke-width: 1px;stroke: #EEE;"></polygon><polygon points="248,92,377,145,426,-33" style="fill:#CCC;stroke-linejoin:bevel;stroke-width: 1px;stroke: #CCC;"></polygon><polygon points="248,92,426,-33,269,-58" style="fill:#DDD;stroke-linejoin:bevel;stroke-width: 1px;stroke: #DDD;"></polygon><polygon points="248,92,269,-58,174,-10" style="fill:#EEE;stroke-linejoin:bevel;stroke-width: 1px;stroke: #EEE;"></polygon><polygon points="1285,329,1161,271,1219,374" style="fill:#CCC;stroke-linejoin:bevel;stroke-width: 1px;stroke: #CCC;"></polygon><polygon points="1285,329,1219,374,1391,411" style="fill:#DDD;stroke-linejoin:bevel;stroke-width: 1px;stroke: #DDD;"></polygon><polygon points="1285,329,1391,411,1398,217" style="fill:#EEE;stroke-linejoin:bevel;stroke-width: 1px;stroke: #EEE;"></polygon><polygon points="1285,329,1398,217,1161,271" style="fill:#CCC;stroke-linejoin:bevel;stroke-width: 1px;stroke: #CCC;"></polygon><polygon points="693,854,466,660,413,890" style="fill:#DDD;stroke-linejoin:bevel;stroke-width: 1px;stroke: #DDD;"></polygon><polygon points="693,854,777,840,741,712" style="fill:#EEE;stroke-linejoin:bevel;stroke-width: 1px;stroke: #EEE;"></polygon><polygon points="693,854,741,712,466,660" style="fill:#CCC;stroke-linejoin:bevel;stroke-width: 1px;stroke: #CCC;"></polygon><polygon points="1398,217,1140,146,1161,271" style="fill:#DDD;stroke-linejoin:bevel;stroke-width: 1px;stroke: #DDD;"></polygon><polygon points="1398,217,1481,-96,1415,-86" style="fill:#EEE;stroke-linejoin:bevel;stroke-width: 1px;stroke: #EEE;"></polygon><polygon points="1398,217,1415,-86,1140,146" style="fill:#CCC;stroke-linejoin:bevel;stroke-width: 1px;stroke: #CCC;"></polygon><polygon points="-13,136,-100,-96,-221,300" style="fill:#DDD;stroke-linejoin:bevel;stroke-width: 1px;stroke: #DDD;"></polygon><polygon points="-13,136,174,-10,23,-10" style="fill:#EEE;stroke-linejoin:bevel;stroke-width: 1px;stroke: #EEE;"></polygon><polygon points="-13,136,23,-10,-100,-96" style="fill:#CCC;stroke-linejoin:bevel;stroke-width: 1px;stroke: #CCC;"></polygon><polygon points="931,678,825,598,741,712" style="fill:#DDD;stroke-linejoin:bevel;stroke-width: 1px;stroke: #DDD;"></polygon><polygon points="931,678,741,712,777,840" style="fill:#EEE;stroke-linejoin:bevel;stroke-width: 1px;stroke: #EEE;"></polygon><polygon points="931,678,1197,853,1086,602" style="fill:#CCC;stroke-linejoin:bevel;stroke-width: 1px;stroke: #CCC;"></polygon><polygon points="931,678,1086,602,986,615" style="fill:#DDD;stroke-linejoin:bevel;stroke-width: 1px;stroke: #DDD;"></polygon><polygon points="931,678,986,615,825,598" style="fill:#EEE;stroke-linejoin:bevel;stroke-width: 1px;stroke: #EEE;"></polygon><polygon points="1012,218,900,152,934,296" style="fill:#CCC;stroke-linejoin:bevel;stroke-width: 1px;stroke: #CCC;"></polygon><polygon points="1012,218,934,296,1090,345" style="fill:#DDD;stroke-linejoin:bevel;stroke-width: 1px;stroke: #DDD;"></polygon><polygon points="1012,218,1090,345,1161,271" style="fill:#EEE;stroke-linejoin:bevel;stroke-width: 1px;stroke: #EEE;"></polygon><polygon points="1012,218,1161,271,1140,146" style="fill:#CCC;stroke-linejoin:bevel;stroke-width: 1px;stroke: #CCC;"></polygon><polygon points="1012,218,1140,146,982,95" style="fill:#DDD;stroke-linejoin:bevel;stroke-width: 1px;stroke: #DDD;"></polygon><polygon points="1012,218,982,95,900,152" style="fill:#EEE;stroke-linejoin:bevel;stroke-width: 1px;stroke: #EEE;"></polygon><polygon points="174,-10,-100,-96,23,-10" style="fill:#CCC;stroke-linejoin:bevel;stroke-width: 1px;stroke: #CCC;"></polygon><polygon points="174,-10,269,-58,-100,-96" style="fill:#DDD;stroke-linejoin:bevel;stroke-width: 1px;stroke: #DDD;"></polygon><polygon points="288,632,176,684,277,716" style="fill:#EEE;stroke-linejoin:bevel;stroke-width: 1px;stroke: #EEE;"></polygon><polygon points="288,632,466,660,405,559" style="fill:#CCC;stroke-linejoin:bevel;stroke-width: 1px;stroke: #CCC;"></polygon><polygon points="288,632,405,559,336,526" style="fill:#DDD;stroke-linejoin:bevel;stroke-width: 1px;stroke: #DDD;"></polygon><polygon points="288,632,336,526,267,496" style="fill:#EEE;stroke-linejoin:bevel;stroke-width: 1px;stroke: #EEE;"></polygon><polygon points="694,-113,-100,-96,269,-58" style="fill:#CCC;stroke-linejoin:bevel;stroke-width: 1px;stroke: #CCC;"></polygon><polygon points="694,-113,269,-58,426,-33" style="fill:#DDD;stroke-linejoin:bevel;stroke-width: 1px;stroke: #DDD;"></polygon><polygon points="694,-113,426,-33,582,115" style="fill:#EEE;stroke-linejoin:bevel;stroke-width: 1px;stroke: #EEE;"></polygon><polygon points="694,-113,582,115,637,142" style="fill:#CCC;stroke-linejoin:bevel;stroke-width: 1px;stroke: #CCC;"></polygon><polygon points="694,-113,637,142,849,72" style="fill:#DDD;stroke-linejoin:bevel;stroke-width: 1px;stroke: #DDD;"></polygon><polygon points="694,-113,849,72,1159,-96" style="fill:#EEE;stroke-linejoin:bevel;stroke-width: 1px;stroke: #EEE;"></polygon><polygon points="694,-113,1159,-96,1481,-96" style="fill:#CCC;stroke-linejoin:bevel;stroke-width: 1px;stroke: #CCC;"></polygon><polygon points="413,890,192,835,-99,892" style="fill:#DDD;stroke-linejoin:bevel;stroke-width: 1px;stroke: #DDD;"></polygon><polygon points="413,890,-99,892,1473,898" style="fill:#EEE;stroke-linejoin:bevel;stroke-width: 1px;stroke: #EEE;"></polygon><polygon points="203,362,100,352,119,401" style="fill:#CCC;stroke-linejoin:bevel;stroke-width: 1px;stroke: #CCC;"></polygon><polygon points="203,362,119,401,122,464" style="fill:#DDD;stroke-linejoin:bevel;stroke-width: 1px;stroke: #DDD;"></polygon><polygon points="203,362,122,464,267,496" style="fill:#EEE;stroke-linejoin:bevel;stroke-width: 1px;stroke: #EEE;"></polygon><polygon points="203,362,267,496,276,357" style="fill:#CCC;stroke-linejoin:bevel;stroke-width: 1px;stroke: #CCC;"></polygon><polygon points="849,72,637,142,779,250" style="fill:#DDD;stroke-linejoin:bevel;stroke-width: 1px;stroke: #DDD;"></polygon><polygon points="849,72,900,152,982,95" style="fill:#EEE;stroke-linejoin:bevel;stroke-width: 1px;stroke: #EEE;"></polygon><polygon points="849,72,982,95,1159,-96" style="fill:#CCC;stroke-linejoin:bevel;stroke-width: 1px;stroke: #CCC;"></polygon><polygon points="825,598,986,615,963,528" style="fill:#DDD;stroke-linejoin:bevel;stroke-width: 1px;stroke: #DDD;"></polygon><polygon points="825,598,963,528,843,455" style="fill:#EEE;stroke-linejoin:bevel;stroke-width: 1px;stroke: #EEE;"></polygon><polygon points="825,598,843,455,748,423" style="fill:#CCC;stroke-linejoin:bevel;stroke-width: 1px;stroke: #CCC;"></polygon><polygon points="1258,572,1138,549,1276,663" style="fill:#DDD;stroke-linejoin:bevel;stroke-width: 1px;stroke: #DDD;"></polygon><polygon points="1258,572,1276,663,1360,593" style="fill:#EEE;stroke-linejoin:bevel;stroke-width: 1px;stroke: #EEE;"></polygon><polygon points="1258,572,1360,593,1240,508" style="fill:#CCC;stroke-linejoin:bevel;stroke-width: 1px;stroke: #CCC;"></polygon><polygon points="1258,572,1240,508,1138,549" style="fill:#DDD;stroke-linejoin:bevel;stroke-width: 1px;stroke: #DDD;"></polygon><polygon points="405,559,466,660,577,456" style="fill:#EEE;stroke-linejoin:bevel;stroke-width: 1px;stroke: #EEE;"></polygon><polygon points="1473,898,1231,802,1197,853" style="fill:#CCC;stroke-linejoin:bevel;stroke-width: 1px;stroke: #CCC;"></polygon><polygon points="982,95,1140,146,1159,-96" style="fill:#DDD;stroke-linejoin:bevel;stroke-width: 1px;stroke: #DDD;"></polygon><polygon points="1391,411,1219,374,1240,508" style="fill:#EEE;stroke-linejoin:bevel;stroke-width: 1px;stroke: #EEE;"></polygon><polygon points="1391,411,1240,508,1360,593" style="fill:#CCC;stroke-linejoin:bevel;stroke-width: 1px;stroke: #CCC;"></polygon><polygon points="843,455,963,528,987,388" style="fill:#DDD;stroke-linejoin:bevel;stroke-width: 1px;stroke: #DDD;"></polygon><polygon points="843,455,987,388,934,296" style="fill:#EEE;stroke-linejoin:bevel;stroke-width: 1px;stroke: #EEE;"></polygon><polygon points="843,455,934,296,779,250" style="fill:#CCC;stroke-linejoin:bevel;stroke-width: 1px;stroke: #CCC;"></polygon><polygon points="843,455,779,250,748,423" style="fill:#DDD;stroke-linejoin:bevel;stroke-width: 1px;stroke: #DDD;"></polygon><polygon points="665,300,471,306,577,456" style="fill:#EEE;stroke-linejoin:bevel;stroke-width: 1px;stroke: #EEE;"></polygon><polygon points="665,300,577,456,678,408" style="fill:#CCC;stroke-linejoin:bevel;stroke-width: 1px;stroke: #CCC;"></polygon><polygon points="665,300,678,408,748,423" style="fill:#DDD;stroke-linejoin:bevel;stroke-width: 1px;stroke: #DDD;"></polygon><polygon points="665,300,748,423,779,250" style="fill:#EEE;stroke-linejoin:bevel;stroke-width: 1px;stroke: #EEE;"></polygon><polygon points="665,300,779,250,637,142" style="fill:#CCC;stroke-linejoin:bevel;stroke-width: 1px;stroke: #CCC;"></polygon><polygon points="471,306,377,145,276,357" style="fill:#DDD;stroke-linejoin:bevel;stroke-width: 1px;stroke: #DDD;"></polygon><polygon points="1159,-96,1140,146,1415,-86" style="fill:#EEE;stroke-linejoin:bevel;stroke-width: 1px;stroke: #EEE;"></polygon><polygon points="1159,-96,1415,-86,1481,-96" style="fill:#CCC;stroke-linejoin:bevel;stroke-width: 1px;stroke: #CCC;"></polygon><polygon points="1138,549,1086,602,1276,663" style="fill:#DDD;stroke-linejoin:bevel;stroke-width: 1px;stroke: #DDD;"></polygon><polygon points="1138,549,1240,508,1136,478" style="fill:#EEE;stroke-linejoin:bevel;stroke-width: 1px;stroke: #EEE;"></polygon><polygon points="1136,478,1240,508,1219,374" style="fill:#CCC;stroke-linejoin:bevel;stroke-width: 1px;stroke: #CCC;"></polygon><polygon points="1136,478,1219,374,1090,345" style="fill:#DDD;stroke-linejoin:bevel;stroke-width: 1px;stroke: #DDD;"></polygon><polygon points="1090,345,934,296,987,388" style="fill:#EEE;stroke-linejoin:bevel;stroke-width: 1px;stroke: #EEE;"></polygon><polygon points="1090,345,1219,374,1161,271" style="fill:#CCC;stroke-linejoin:bevel;stroke-width: 1px;stroke: #CCC;"></polygon><polygon points="-221,300,-99,892,-76,544" style="fill:#DDD;stroke-linejoin:bevel;stroke-width: 1px;stroke: #DDD;"></polygon><polygon points="99,666,-76,544,-99,892" style="fill:#EEE;stroke-linejoin:bevel;stroke-width: 1px;stroke: #EEE;"></polygon><polygon points="99,666,-99,892,125,729" style="fill:#CCC;stroke-linejoin:bevel;stroke-width: 1px;stroke: #CCC;"></polygon><polygon points="99,666,125,729,176,684" style="fill:#DDD;stroke-linejoin:bevel;stroke-width: 1px;stroke: #DDD;"></polygon><polygon points="99,666,122,464,-76,544" style="fill:#EEE;stroke-linejoin:bevel;stroke-width: 1px;stroke: #EEE;"></polygon><polygon points="192,835,125,729,-99,892" style="fill:#CCC;stroke-linejoin:bevel;stroke-width: 1px;stroke: #CCC;"></polygon><polygon points="192,835,277,716,176,684" style="fill:#DDD;stroke-linejoin:bevel;stroke-width: 1px;stroke: #DDD;"></polygon><polygon points="192,835,176,684,125,729" style="fill:#EEE;stroke-linejoin:bevel;stroke-width: 1px;stroke: #EEE;"></polygon><polygon points="377,145,582,115,426,-33" style="fill:#CCC;stroke-linejoin:bevel;stroke-width: 1px;stroke: #CCC;"></polygon><polygon points="963,528,986,615,1086,602" style="fill:#DDD;stroke-linejoin:bevel;stroke-width: 1px;stroke: #DDD;"></polygon><polygon points="1231,802,1086,602,1197,853" style="fill:#EEE;stroke-linejoin:bevel;stroke-width: 1px;stroke: #EEE;"></polygon><polygon points="1231,802,1276,663,1086,602" style="fill:#CCC;stroke-linejoin:bevel;stroke-width: 1px;stroke: #CCC;"></polygon></g><g id="circles"><circle cx="408.34610712950655" cy="422.91175499465" r="0" style="fill:#fff" id="d0c"></circle><circle cx="348.95213522836895" cy="739.1612800507054" r="0" style="fill:#fff" id="d1c"></circle><circle cx="909.734375" cy="860.9375" r="0" style="fill:#fff" id="d2c"></circle><circle cx="1496.234375" cy="695.09375" r="0" style="fill:#fff" id="d3c"></circle><circle cx="1041.8599682726142" cy="444.727778296728" r="0" style="fill:#fff" id="d4c"></circle><circle cx="3.203125" cy="370.34375" r="0" style="fill:#fff" id="d5c"></circle><circle cx="843.3910913318081" cy="222.78769754976094" r="0" style="fill:#fff" id="d6c"></circle><circle cx="517.9097439083783" cy="187.08356896661078" r="0" style="fill:#fff" id="d7c"></circle><circle cx="648.9682966950171" cy="538.3122106328091" r="0" style="fill:#fff" id="d8c"></circle><circle cx="175.9530745435217" cy="568.1828357892025" r="0" style="fill:#fff" id="d9c"></circle><circle cx="248.703125" cy="92.1875" r="0" style="fill:#fff" id="d10c"></circle><circle cx="1285.3911172484598" cy="329.1601182699886" r="0" style="fill:#fff" id="d11c"></circle><circle cx="693.203125" cy="854.265625" r="0" style="fill:#fff" id="d12c"></circle><circle cx="1398.3681797258105" cy="217.53319564187356" r="0" style="fill:#fff" id="d13c"></circle><circle cx="-12.828125" cy="136.515625" r="0" style="fill:#fff" id="d14c"></circle><circle cx="931.9915175634618" cy="678.5949012802639" r="0" style="fill:#fff" id="d15c"></circle><circle cx="1012.5248954828453" cy="218.25464693700008" r="0" style="fill:#fff" id="d16c"></circle><circle cx="174.5" cy="-9.6875" r="0" style="fill:#fff" id="d17c"></circle><circle cx="288.01406674924675" cy="632.3589180050078" r="0" style="fill:#fff" id="d18c"></circle><circle cx="694.75" cy="-112.109375" r="0" style="fill:#fff" id="d19c"></circle><circle cx="413.203125" cy="890.75" r="0" style="fill:#fff" id="d20c"></circle><circle cx="203.36919473672478" cy="362.6248531389324" r="0" style="fill:#fff" id="d21c"></circle><circle cx="849.7244550074339" cy="72.07609468069697" r="0" style="fill:#fff" id="d22c"></circle><circle cx="825.5615676742163" cy="598.9321317156532" r="0" style="fill:#fff" id="d23c"></circle><circle cx="741.015625" cy="712.234375" r="0" style="fill:#fff" id="d24c"></circle><circle cx="1258.69933278154" cy="572.3110966816238" r="0" style="fill:#fff" id="d25c"></circle><circle cx="-99.09375" cy="-95.25" r="0" style="fill:#fff" id="d26c"></circle><circle cx="405.36142332393246" cy="559.4629074260066" r="0" style="fill:#fff" id="d27c"></circle><circle cx="466.12689010277234" cy="660.9718499236888" r="0" style="fill:#fff" id="d28c"></circle><circle cx="1473.265625" cy="898.96875" r="0" style="fill:#fff" id="d29c"></circle><circle cx="982.7404562557144" cy="95.7155185814803" r="0" style="fill:#fff" id="d30c"></circle><circle cx="1391.9193821187557" cy="411.7242018527329" r="0" style="fill:#fff" id="d31c"></circle><circle cx="843.9501965008421" cy="455.59017410533335" r="0" style="fill:#fff" id="d32c"></circle><circle cx="665.6123997413691" cy="300.8292642741152" r="0" style="fill:#fff" id="d33c"></circle><circle cx="471.3825970876154" cy="306.1249913508263" r="0" style="fill:#fff" id="d34c"></circle><circle cx="1159.140625" cy="-95.203125" r="0" style="fill:#fff" id="d35c"></circle><circle cx="1138.725660795648" cy="549.8648404393383" r="0" style="fill:#fff" id="d36c"></circle><circle cx="1140.7054158123742" cy="146.34116488934177" r="0" style="fill:#fff" id="d37c"></circle><circle cx="748.1434381888439" cy="423.66617737584306" r="0" style="fill:#fff" id="d38c"></circle><circle cx="1136.4734896193602" cy="478.60475239280186" r="0" style="fill:#fff" id="d39c"></circle><circle cx="1090.6915024295834" cy="345.0785806093009" r="0" style="fill:#fff" id="d40c"></circle><circle cx="269.015625" cy="-57.0625" r="0" style="fill:#fff" id="d41c"></circle><circle cx="637.7386634817129" cy="142.9613625340837" r="0" style="fill:#fff" id="d42c"></circle><circle cx="1240.4094876433862" cy="508.3805144129621" r="0" style="fill:#fff" id="d43c"></circle><circle cx="-220.640625" cy="300.328125" r="0" style="fill:#fff" id="d44c"></circle><circle cx="99.51319177379973" cy="666.8749849927774" r="0" style="fill:#fff" id="d45c"></circle><circle cx="987.8043928953417" cy="388.6309261283754" r="0" style="fill:#fff" id="d46c"></circle><circle cx="934.5075109211513" cy="296.23617931821155" r="0" style="fill:#fff" id="d47c"></circle><circle cx="192.78125" cy="835.4375" r="0" style="fill:#fff" id="d48c"></circle><circle cx="577.1849578291278" cy="456.94367124676614" r="0" style="fill:#fff" id="d49c"></circle><circle cx="276.8385786137858" cy="357.9080533822525" r="0" style="fill:#fff" id="d50c"></circle><circle cx="377.2745246154336" cy="145.97051659272807" r="0" style="fill:#fff" id="d51c"></circle><circle cx="963.5880636067816" cy="528.3876107524082" r="0" style="fill:#fff" id="d52c"></circle><circle cx="986.5847004656238" cy="615.706612419487" r="0" style="fill:#fff" id="d53c"></circle><circle cx="122.66880014517207" cy="464.1172655825857" r="0" style="fill:#fff" id="d54c"></circle><circle cx="267.92117214359246" cy="496.45221085497997" r="0" style="fill:#fff" id="d55c"></circle><circle cx="1360.5392182057788" cy="593.2617565311197" r="0" style="fill:#fff" id="d56c"></circle><circle cx="426.46875" cy="-32.359375" r="0" style="fill:#fff" id="d57c"></circle><circle cx="1231.25" cy="802.640625" r="0" style="fill:#fff" id="d58c"></circle><circle cx="900.6336163876933" cy="152.42809483738836" r="0" style="fill:#fff" id="d59c"></circle><circle cx="125.39814267383763" cy="729.4430490310546" r="0" style="fill:#fff" id="d60c"></circle><circle cx="777.046875" cy="840.609375" r="0" style="fill:#fff" id="d61c"></circle><circle cx="277.7018535945815" cy="716.0818949858547" r="0" style="fill:#fff" id="d62c"></circle><circle cx="-75.1875" cy="544.96875" r="0" style="fill:#fff" id="d63c"></circle><circle cx="1219.3799709482469" cy="374.0510796468929" r="0" style="fill:#fff" id="d64c"></circle><circle cx="176.94525061887788" cy="684.4298613938973" r="0" style="fill:#fff" id="d65c"></circle><circle cx="1086.0337904498886" cy="602.380819078347" r="0" style="fill:#fff" id="d66c"></circle><circle cx="100.88552466370126" cy="352.39231119135127" r="0" style="fill:#fff" id="d67c"></circle><circle cx="1197.25" cy="853.984375" r="0" style="fill:#fff" id="d68c"></circle><circle cx="779.713016547121" cy="250.84739347050632" r="0" style="fill:#fff" id="d69c"></circle><circle cx="1276.3357154616087" cy="663.735594110237" r="0" style="fill:#fff" id="d70c"></circle><circle cx="678.537392549874" cy="408.12289173396823" r="0" style="fill:#fff" id="d71c"></circle><circle cx="23.046875" cy="-9.453125" r="0" style="fill:#fff" id="d72c"></circle><circle cx="1481.484375" cy="-95.59375" r="0" style="fill:#fff" id="d73c"></circle><circle cx="119.90860214954307" cy="401.50349839622106" r="0" style="fill:#fff" id="d74c"></circle><circle cx="-99" cy="892.390625" r="0" style="fill:#fff" id="d75c"></circle><circle cx="1161.4427266894038" cy="271.0083010919314" r="0" style="fill:#fff" id="d76c"></circle><circle cx="1415.609375" cy="-85.34375" r="0" style="fill:#fff" id="d77c"></circle><circle cx="336.2205240250627" cy="526.9616846836695" r="0" style="fill:#fff" id="d78c"></circle><circle cx="582.8393421073112" cy="115.47545237008043" r="0" style="fill:#fff" id="d79c"></circle></g><defs></defs></svg>